<svg
    style="position: absolute; left: -9999px; top: -9999px; pointer-events: none;"
    id="svg_sprite" 
    xmlns="http://www.w3.org/2000/svg" 
    xmlns:xlink="http://www.w3.org/1999/xlink"
>
    <symbol id="checkmark" viewBox="0 -4 24 24">
        <path fill-rule="evenodd" clip-rule="evenodd" d="M3.06066 6.4393C2.47487 5.85355 1.52513 5.85355 0.93934 6.4393C0.353553 7.0251 0.353553 7.9749 0.93934 8.5607L7.93934 15.5607C8.52513 16.1464 9.47487 16.1464 10.0607 15.5607L23.0607 2.56066C23.6464 1.97487 23.6464 1.02513 23.0607 0.43934C22.4749 -0.14645 21.5251 -0.14645 20.9393 0.43934L9 12.3787L3.06066 6.4393z"/>
    </symbol>
    <symbol id="menu" viewBox="0 0 24 24">
        <path d="M4 6H20M4 12H20M4 18H20" stroke-width="2" stroke-linecap="round" stroke-linejoin="round"/>
    </symbol>
    <symbol id="close" viewBox="0 0 24 24">
        <path d="M20.7457 3.32851C20.3552 2.93798 19.722 2.93798 19.3315 3.32851L12.0371 10.6229L4.74275 3.32851C4.35223 2.93798 3.71906 2.93798 3.32854 3.32851C2.93801 3.71903 2.93801 4.3522 3.32854 4.74272L10.6229 12.0371L3.32856 19.3314C2.93803 19.722 2.93803 20.3551 3.32856 20.7457C3.71908 21.1362 4.35225 21.1362 4.74277 20.7457L12.0371 13.4513L19.3315 20.7457C19.722 21.1362 20.3552 21.1362 20.7457 20.7457C21.1362 20.3551 21.1362 19.722 20.7457 19.3315L13.4513 12.0371L20.7457 4.74272C21.1362 4.3522 21.1362 3.71903 20.7457 3.32851Z" />
    </symbol>
    <symbol id="arrow-left" viewBox="0 0 1920 1920">
        <path d="M615.177 345 0 960.292l615.177 615.177 81.25-81.25-476.467-476.466H1920V902.83H219.96l476.467-476.58z" fill-rule="evenodd"/>
    </symbol>
    <symbol id="arrow-right" viewBox="0 0 1920 1920">
        <path d="m1304.824 345.002-81.25 81.249 476.466 476.582H0v114.922h1700.04l-476.466 476.465 81.25 81.25L1920 960.293z" fill-rule="evenodd"/>
    </symbol>
    <symbol id="spinner" viewBox="0 0 24 24">
        <path opacity="0.3" fill-rule="evenodd" clip-rule="evenodd" d="M12 19C15.866 19 19 15.866 19 12C19 8.13401 15.866 5 12 5C8.13401 5 5 8.13401 5 12C5 15.866 8.13401 19 12 19ZM12 22C17.5228 22 22 17.5228 22 12C22 6.47715 17.5228 2 12 2C6.47715 2 2 6.47715 2 12C2 17.5228 6.47715 22 12 22Z" />
        <path d="M2 12C2 6.47715 6.47715 2 12 2V5C8.13401 5 5 8.13401 5 12H2Z" />
    </symbol>
</svg>