<?xml version="1.0" standalone="no"?>
<!DOCTYPE svg PUBLIC "-//W3C//DTD SVG 20010904//EN"
 "http://www.w3.org/TR/2001/REC-SVG-20010904/DTD/svg10.dtd">
<svg version="1.0" xmlns="http://www.w3.org/2000/svg"
 width="1167.000000pt" height="534.000000pt" viewBox="0 0 1167.000000 534.000000"
 preserveAspectRatio="xMidYMid meet">

<g transform="translate(0.000000,534.000000) scale(0.100000,-0.100000)"
fill="#000000" stroke="none">
<path d="M5117 5246 c-32 -14 -77 -37 -99 -52 -76 -53 -78 -41 43 -277 60
-117 182 -356 270 -532 89 -176 165 -324 170 -329 5 -6 18 -1 33 13 14 13 29
20 35 16 18 -10 52 -85 45 -96 -16 -26 -97 -68 -123 -63 -20 4 -134 -52 -516
-254 -269 -142 -569 -300 -666 -350 -98 -51 -182 -98 -187 -105 -7 -9 -5 -28
7 -63 21 -64 44 -99 77 -120 23 -16 28 -16 58 -1 32 15 34 15 60 -11 l27 -27
498 253 c274 138 501 252 505 252 12 0 5 -65 -20 -189 -14 -69 -54 -285 -89
-479 -36 -194 -67 -363 -71 -377 -5 -20 -1 -26 30 -39 l36 -15 -2 -188 -3
-188 -465 -5 c-256 -3 194 -5 1000 -5 806 0 1349 1 1208 2 l-258 3 -15 30 c-8
16 -22 95 -31 181 l-16 153 29 20 c59 43 123 110 123 129 0 19 -89 184 -253
471 -68 119 -87 164 -133 309 -29 94 -50 176 -46 183 4 7 26 26 50 43 23 17
42 36 42 42 0 5 -93 109 -207 230 -151 161 -211 218 -222 213 -33 -14 -59 -16
-66 -5 -4 8 -19 4 -47 -11 -36 -20 -39 -26 -34 -53 9 -44 29 -59 63 -48 15 5
46 6 68 3 l40 -6 -27 -12 c-15 -6 -35 -9 -43 -6 -8 4 -26 -1 -40 -10 -13 -9
-29 -16 -34 -16 -14 0 -80 110 -75 125 3 7 32 27 64 44 51 27 62 30 79 19 17
-10 26 -9 58 10 21 12 341 189 710 394 511 283 673 377 673 391 0 29 -83 219
-98 225 -8 3 -18 -1 -22 -9 -5 -7 -17 -14 -27 -14 -26 0 -383 -218 -376 -229
3 -5 1 -6 -5 -2 -8 5 -994 -576 -1027 -606 -6 -6 -5 -12 4 -18 12 -7 12 -11 2
-23 -9 -12 -9 -16 1 -19 8 -3 6 -7 -6 -11 -10 -4 -15 -3 -11 3 10 17 -1 12
-69 -31 -75 -47 -82 -45 -117 24 -28 53 -21 75 31 115 25 19 46 41 48 48 2 8
-17 49 -42 92 -24 42 -139 248 -255 457 -115 209 -217 390 -226 403 -20 28
-45 28 -118 -2z m-89 -118 c28 -36 513 -1000 510 -1015 -2 -10 -11 -18 -21
-18 -24 0 -534 1002 -524 1028 8 20 21 22 35 5z m2222 -113 c0 -2 -10 -10 -22
-16 -21 -11 -22 -11 -9 4 13 16 31 23 31 12z m-18 -57 c-7 -7 -12 -8 -12 -2 0
14 12 26 19 19 2 -3 -1 -11 -7 -17z m-92 -28 c0 -5 -4 -10 -10 -10 -5 0 -10 5
-10 10 0 6 5 10 10 10 6 0 10 -4 10 -10z m-50 -20 c0 -5 -4 -10 -10 -10 -5 0
-10 5 -10 10 0 6 5 10 10 10 6 0 10 -4 10 -10z m307 -46 c3 -8 -1 -22 -8 -29
-8 -8 -97 -60 -199 -115 -102 -56 -327 -182 -500 -280 -701 -397 -653 -371
-670 -355 -11 11 -12 20 -4 32 6 9 222 134 480 278 258 143 559 311 669 373
110 61 206 112 213 112 7 0 15 -7 19 -16z m-2150 -99 c9 -25 -4 -29 -17 -6 -7
15 -7 21 0 21 6 0 13 -7 17 -15z m1373 -140 c-7 -8 -17 -15 -22 -15 -6 0 -5 7
2 15 7 8 17 15 22 15 6 0 5 -7 -2 -15z m-105 -55 c-3 -5 -12 -10 -18 -10 -7 0
-6 4 3 10 19 12 23 12 15 0z m-938 -22 c-3 -8 -6 -5 -6 6 -1 11 2 17 5 13 3
-3 4 -12 1 -19z m658 -148 c-10 -11 -23 -20 -29 -20 -6 1 0 10 13 20 30 26 39
26 16 0z m-695 -120 c0 -5 -5 -10 -11 -10 -5 0 -7 5 -4 10 3 6 8 10 11 10 2 0
4 -4 4 -10z m273 -457 c44 -61 73 -117 419 -797 174 -343 306 -612 301 -617
-5 -5 -289 -12 -632 -16 -536 -5 -623 -4 -619 8 4 12 99 15 604 19 329 3 600
7 602 8 1 1 2 6 2 11 0 20 -626 1240 -675 1316 l-52 80 -54 -4 c-30 -2 -63 -9
-74 -17 -25 -18 -55 -18 -55 -1 0 24 73 52 140 53 l63 1 30 -44z m301 -71 c30
-53 91 -167 136 -252 45 -85 117 -213 160 -285 42 -71 126 -220 187 -330 61
-110 129 -231 151 -269 38 -66 44 -96 18 -96 -6 0 -54 78 -105 173 -52 94
-208 377 -346 627 -299 540 -287 518 -280 530 11 17 22 2 79 -98z m166 8 c0
-5 -2 -10 -4 -10 -3 0 -8 5 -11 10 -3 6 -1 10 4 10 6 0 11 -4 11 -10z m-675
-80 c0 -17 -64 -51 -728 -391 -287 -147 -515 -258 -524 -255 -40 16 -1 45 192
143 834 427 1022 521 1040 520 11 -1 20 -9 20 -17z m570 -340 c3 -5 1 -10 -4
-10 -6 0 -11 5 -11 10 0 6 2 10 4 10 3 0 8 -4 11 -10z m-1650 -20 c3 -5 1 -10
-4 -10 -6 0 -11 5 -11 10 0 6 2 10 4 10 3 0 8 -4 11 -10z m1523 -61 c-3 -9
-12 0 -22 21 l-18 35 22 -21 c12 -12 20 -28 18 -35z m-1653 -129 c-3 -5 -10
-10 -16 -10 -5 0 -9 5 -9 10 0 6 7 10 16 10 8 0 12 -4 9 -10z m1915 -34 c0 -3
-4 -8 -10 -11 -5 -3 -10 -1 -10 4 0 6 5 11 10 11 6 0 10 -2 10 -4z m-920 -156
c0 -5 -5 -10 -11 -10 -5 0 -7 5 -4 10 3 6 8 10 11 10 2 0 4 -4 4 -10z m95 -20
c3 -5 1 -10 -4 -10 -6 0 -11 5 -11 10 0 6 2 10 4 10 3 0 8 -4 11 -10z m992
-46 c-3 -3 -12 -4 -19 -1 -8 3 -5 6 6 6 11 1 17 -2 13 -5z m-809 -77 c2 -10
-2 -24 -8 -32 -18 -21 -50 -1 -50 31 0 22 4 25 27 22 17 -2 29 -10 31 -21z
m89 7 c9 -24 -10 -49 -37 -49 -31 0 -48 28 -31 49 17 21 60 21 68 0z m-113
-70 c25 -9 19 -34 -7 -34 -30 0 -40 10 -26 27 13 15 12 15 33 7z m101 -24 c0
-8 -8 -16 -18 -18 -21 -4 -49 16 -41 30 9 15 59 5 59 -12z m-97 -29 c8 -4 12
-19 10 -32 -4 -29 -45 -34 -61 -7 -19 30 19 60 51 39z m92 -16 c6 -8 10 -22 8
-32 -7 -38 -68 -22 -68 17 0 29 40 39 60 15z m610 11 c0 -3 -4 -8 -10 -11 -5
-3 -10 -1 -10 4 0 6 5 11 10 11 6 0 10 -2 10 -4z m-1033 -52 c-9 -9 -28 6 -21
18 4 6 10 6 17 -1 6 -6 8 -13 4 -17z m1206 9 c-7 -2 -19 -2 -25 0 -7 3 -2 5
12 5 14 0 19 -2 13 -5z m57 -3 c0 -5 -4 -10 -10 -10 -5 0 -10 5 -10 10 0 6 5
10 10 10 6 0 10 -4 10 -10z m-970 -100 c0 -5 -7 -7 -15 -4 -8 4 -15 8 -15 10
0 2 7 4 15 4 8 0 15 -4 15 -10z m930 -51 c0 -6 -4 -7 -10 -4 -5 3 -10 11 -10
16 0 6 5 7 10 4 6 -3 10 -11 10 -16z m-1140 -13 c0 -2 -7 -6 -15 -10 -8 -3
-15 -1 -15 4 0 6 7 10 15 10 8 0 15 -2 15 -4z m865 -6 c3 -5 1 -10 -4 -10 -6
0 -11 5 -11 10 0 6 2 10 4 10 3 0 8 -4 11 -10z m295 -85 c10 -12 8 -15 -12
-20 -31 -8 -698 2 -818 12 -70 6 24 9 350 13 245 3 450 6 456 8 6 1 17 -5 24
-13z m-952 -12 c3 -10 -34 -13 -162 -13 -94 0 -166 4 -166 9 0 17 25 20 174
18 109 -2 150 -5 154 -14z m1015 -43 c-12 -13 -767 -17 -773 -5 -10 19 57 23
407 24 270 1 354 4 360 14 5 9 9 7 11 -7 2 -10 0 -22 -5 -26z m-819 24 c14 -5
16 -29 16 -160 0 -118 -3 -154 -13 -154 -9 0 -11 26 -9 110 3 60 1 121 -2 135
-6 23 -10 25 -71 25 l-65 0 0 -119 c0 -130 3 -137 60 -144 25 -3 19 -4 -21 -5
-51 -2 -57 0 -63 21 -8 30 -8 282 1 290 8 9 146 9 167 1z m-205 -20 c15 -14
-30 -19 -162 -19 -170 0 -213 16 -70 26 83 5 223 1 232 -7z m-281 -57 c2 -11
-3 -17 -17 -17 -23 0 -35 15 -26 31 10 15 39 6 43 -14z m287 3 c0 -8 -10 -16
-22 -18 -22 -3 -32 16 -16 32 12 11 38 2 38 -14z m322 3 c2 -6 -5 -14 -17 -18
-30 -10 -70 2 -70 21 0 12 10 14 42 12 23 -2 43 -8 45 -15z m713 3 c0 -10 -46
-15 -226 -20 -222 -8 -256 -4 -240 23 5 7 82 11 237 11 186 0 229 -3 229 -14z
m9 -42 c14 -13 -32 -17 -239 -18 -146 -1 -231 3 -232 9 -5 18 453 27 471 9z
m-724 -9 c0 -12 -50 -19 -71 -11 -9 3 -12 11 -9 16 8 14 80 9 80 -5z m-605 -5
c0 -5 -9 -10 -20 -10 -11 0 -20 5 -20 10 0 6 9 10 20 10 11 0 20 -4 20 -10z
m285 0 c4 -6 -5 -10 -19 -10 -14 0 -26 5 -26 10 0 6 9 10 19 10 11 0 23 -4 26
-10z m1050 -31 c4 -6 4 -13 0 -17 -3 -3 -107 -8 -231 -10 -221 -4 -256 0 -240
27 10 15 462 15 471 0z m-1331 -8 c9 -13 -19 -32 -38 -25 -17 6 -20 16 -9 27
9 10 41 9 47 -2z m281 0 c3 -5 1 -13 -5 -16 -15 -9 -43 3 -35 15 8 13 32 13
40 1z m318 -6 c-4 -15 -66 -12 -71 3 -3 10 6 13 34 10 22 -2 38 -7 37 -13z
m132 -38 c55 2 214 5 353 8 172 4 252 3 252 -4 0 -6 -10 -13 -22 -15 -51 -10
-786 -17 -792 -7 -12 18 27 32 69 24 22 -4 85 -7 140 -6z m-457 -13 c1 -5 -72
-10 -163 -12 -148 -2 -178 2 -159 20 9 9 319 1 322 -8z m1078 -38 c3 -14 4
-33 2 -43 -3 -17 -25 -18 -407 -21 -396 -2 -443 1 -425 29 3 5 134 10 292 10
158 1 341 5 407 9 79 5 -17 7 -282 6 -261 -1 -404 3 -405 9 -3 11 217 19 599
23 l213 2 6 -24z m-1082 8 c9 -3 13 -10 10 -15 -7 -12 -324 -12 -324 0 0 5 8
12 18 14 26 7 278 8 296 1z m11 -54 c0 -12 -22 -16 -125 -18 -135 -3 -218 4
-204 18 5 5 66 11 134 13 185 5 195 4 195 -13z"/>
<path d="M5705 4150 c-7 -11 12 -50 25 -50 15 0 80 41 80 51 0 12 -97 12 -105
-1z"/>
<path d="M5543 3995 c-9 -19 -13 -38 -9 -42 11 -12 59 44 53 61 -10 26 -26 19
-44 -19z"/>
<path d="M2894 3280 c-43 -14 -68 -45 -68 -87 0 -44 35 -77 91 -87 79 -15 108
-59 58 -92 -33 -21 -83 -10 -97 22 -14 30 -58 34 -58 5 0 -57 89 -103 158 -83
52 16 77 45 77 92 0 48 -22 73 -78 89 -82 23 -97 32 -97 57 0 46 67 59 104 19
26 -28 66 -34 66 -10 0 8 -12 28 -27 44 -31 34 -80 45 -129 31z"/>
<path d="M2510 3120 l0 -160 100 0 100 0 0 25 c0 24 -2 25 -70 25 l-70 0 0 45
0 45 60 0 c57 0 60 1 60 25 0 24 -3 25 -60 25 l-60 0 0 40 0 40 65 0 c63 0 65
1 65 25 0 25 0 25 -95 25 l-95 0 0 -160z"/>
<path d="M3150 3255 c0 -23 3 -25 50 -25 l50 0 0 -135 0 -135 25 0 25 0 0 135
0 135 45 0 c41 0 45 2 45 25 l0 25 -120 0 -120 0 0 -25z"/>
<path d="M8170 3245 c0 -21 5 -25 30 -25 l30 0 0 -130 c0 -123 1 -130 20 -130
19 0 20 7 20 155 l0 155 -50 0 c-47 0 -50 -2 -50 -25z"/>
<path d="M8424 3260 c-48 -19 -71 -100 -43 -152 13 -25 74 -51 100 -43 25 8
24 -2 -6 -50 -31 -50 -31 -55 -1 -55 20 0 32 14 67 76 24 44 44 95 47 120 4
39 1 47 -31 79 -28 28 -42 35 -73 34 -22 0 -49 -4 -60 -9z m112 -77 c15 -58
-42 -101 -90 -69 -67 43 -19 130 57 104 16 -6 30 -20 33 -35z"/>
<path d="M8721 3244 c-79 -66 -63 -243 25 -280 94 -39 164 26 164 153 0 64
-28 125 -67 142 -41 19 -89 13 -122 -15z m105 -32 c39 -26 48 -142 13 -186
-30 -38 -73 -36 -100 7 -26 41 -23 135 6 167 18 20 60 26 81 12z"/>
<path d="M8980 3245 c0 -24 2 -25 70 -25 39 0 70 -4 70 -8 0 -5 -22 -63 -49
-130 l-50 -122 27 0 c25 0 30 9 85 148 31 82 57 152 57 155 0 4 -47 7 -105 7
l-105 0 0 -25z"/>
<path d="M3470 2990 c0 -25 4 -30 25 -30 21 0 25 5 25 30 0 25 -4 30 -25 30
-21 0 -25 -5 -25 -30z"/>
<path d="M4516 1962 c-5 -9 171 -12 712 -12 395 0 970 -3 1278 -6 395 -5 556
-3 549 4 -15 16 -2529 29 -2539 14z"/>
<path d="M5058 1883 c-131 -2 -238 -7 -238 -11 0 -4 378 -7 840 -8 462 0 840
3 840 8 0 4 -114 8 -252 8 -139 0 -410 2 -603 3 -192 2 -457 2 -587 0z"/>
<path d="M5770 1790 c-91 -3 -160 -8 -155 -12 15 -9 535 3 535 14 0 8 -87 8
-380 -2z"/>
<path d="M2290 1242 c-19 -9 -43 -33 -55 -52 -19 -34 -20 -51 -20 -455 0 -404
1 -421 20 -455 31 -53 74 -70 180 -70 106 0 149 17 180 70 18 31 20 56 23 208
l4 172 -61 0 -61 0 0 -158 c0 -110 -4 -162 -12 -170 -16 -16 -130 -16 -146 0
-9 9 -12 113 -12 405 0 445 -7 413 85 413 82 0 85 -4 85 -135 l0 -115 61 0 61
0 -3 128 c-3 105 -7 133 -24 162 -31 53 -74 70 -180 70 -66 0 -99 -5 -125 -18z"/>
<path d="M60 735 l0 -515 55 0 55 0 0 295 0 295 90 0 90 0 0 -295 0 -295 55 0
55 0 0 515 0 515 -55 0 -55 0 0 -165 0 -165 -90 0 -90 0 0 165 0 165 -55 0
-55 0 0 -515z"/>
<path d="M820 735 l0 -515 175 0 175 0 0 55 0 55 -115 0 -115 0 0 240 0 240
85 0 85 0 0 55 0 55 -85 0 -85 0 0 110 0 110 115 0 115 0 0 55 0 55 -175 0
-175 0 0 -515z"/>
<path d="M1500 735 l0 -515 138 0 c156 0 192 11 224 71 16 30 18 60 18 252 0
237 -5 267 -55 303 l-27 20 27 18 c40 26 55 73 55 171 0 65 -5 95 -20 124 -30
60 -64 71 -224 71 l-136 0 0 -515z m255 388 c14 -13 16 -31 13 -90 -4 -93 -17
-107 -96 -108 l-57 0 -3 94 c-1 52 -1 100 2 108 8 20 120 18 141 -4z m-14
-332 c24 -19 24 -23 27 -224 4 -243 5 -240 -92 -235 l-61 3 -3 225 c-1 123 0
230 2 237 8 21 100 16 127 -6z"/>
<path d="M2960 735 l0 -515 60 0 60 0 0 300 0 300 48 0 48 0 64 -300 63 -300
59 0 c55 0 58 1 53 22 -3 13 -34 157 -69 322 l-64 298 64 191 c35 105 64 193
64 194 0 2 -27 3 -59 3 l-59 0 -40 -112 c-22 -62 -48 -139 -58 -170 l-18 -58
-48 0 -48 0 0 170 0 170 -60 0 -60 0 0 -515z"/>
<path d="M3761 773 c-29 -263 -56 -495 -59 -515 l-5 -38 56 0 c64 0 59 -9 75
130 l7 65 101 3 102 3 5 -33 c3 -18 9 -63 13 -100 l6 -68 60 0 59 0 -6 33 c-4
26 -115 980 -115 993 0 2 -55 4 -123 4 l-122 0 -54 -477z m199 353 c0 -18 58
-519 66 -568 l6 -38 -91 0 c-66 0 -91 3 -91 13 0 20 61 560 66 585 5 24 44 32
44 8z"/>
<path d="M4570 1232 c-56 -28 -73 -69 -78 -193 -3 -59 -1 -138 3 -176 7 -64
10 -71 52 -111 l45 -44 -52 -226 c-28 -125 -53 -235 -56 -244 -5 -16 2 -18 54
-18 l58 0 48 208 c71 311 61 282 101 282 l35 0 0 -245 0 -245 55 0 55 0 0 515
0 515 -142 0 c-116 0 -150 -3 -178 -18z m208 -249 l3 -153 -74 0 c-43 0 -78 5
-85 12 -17 17 -17 269 0 286 9 9 37 12 83 10 l70 -3 3 -152z"/>
<path d="M5660 735 l0 -515 57 0 56 0 -5 465 c-6 445 -5 465 12 465 12 0 20
-10 24 -27 9 -41 106 -634 106 -645 0 -5 43 -7 97 -6 l97 3 55 338 c55 336 55
337 79 337 24 0 25 -1 18 -62 -3 -34 -9 -243 -13 -465 l-6 -403 61 0 62 0 0
515 0 515 -120 0 c-66 0 -120 -4 -120 -8 0 -22 -101 -667 -105 -671 -15 -14
-27 42 -69 329 -26 173 -49 323 -52 333 -5 15 -19 17 -120 17 l-114 0 0 -515z"/>
<path d="M6710 735 l0 -515 175 0 175 0 0 55 0 55 -115 0 -115 0 0 240 0 240
85 0 85 0 0 55 0 55 -85 0 -85 0 0 110 0 110 115 0 115 0 0 55 0 55 -175 0
-175 0 0 -515z"/>
<path d="M7430 1228 c-1 -103 -40 -881 -45 -888 -3 -6 -22 -10 -41 -10 l-34 0
0 -55 0 -55 55 0 c67 0 106 18 124 57 9 19 19 155 32 428 10 220 19 408 19
418 0 14 10 17 65 17 l65 0 0 -460 0 -460 60 0 60 0 0 515 0 515 -180 0 c-180
0 -180 0 -180 -22z"/>
<path d="M8140 735 l0 -515 138 0 c151 0 187 10 226 63 20 27 21 41 21 286 0
231 -2 260 -18 284 -33 51 -73 67 -164 67 l-83 0 0 165 0 165 -60 0 -60 0 0
-515z m258 63 c9 -9 12 -73 12 -228 0 -155 -3 -219 -12 -228 -7 -7 -39 -12
-75 -12 l-63 0 0 240 0 240 63 0 c36 0 68 -5 75 -12z"/>
<path d="M8870 735 l0 -515 55 0 55 0 0 295 0 295 90 0 90 0 0 -295 0 -295 55
0 55 0 0 515 0 515 -55 0 -55 0 0 -165 0 -165 -90 0 -90 0 0 165 0 165 -55 0
-55 0 0 -515z"/>
<path d="M9630 735 l0 -515 60 0 60 0 0 243 0 242 85 85 85 85 0 -328 0 -327
55 0 55 0 0 515 0 515 -55 0 -55 0 0 -115 0 -114 -85 -88 -84 -88 -1 203 0
202 -60 0 -60 0 0 -515z"/>
<path d="M10390 735 l0 -515 190 0 c144 0 192 -3 195 -12 2 -7 9 -39 15 -70
l11 -58 40 0 39 0 0 125 0 125 -50 0 -50 0 0 460 0 460 -55 0 -55 0 -2 -457
-3 -458 -80 0 -80 0 -3 458 -2 457 -55 0 -55 0 0 -515z"/>
<path d="M11255 1238 c-3 -12 -115 -992 -115 -1010 0 -7 109 -12 111 -5 0 1 6
45 12 97 l12 95 101 3 102 3 6 -33 c3 -18 8 -63 12 -100 l7 -68 59 0 59 0 -6
33 c-4 26 -115 980 -115 993 0 2 -54 4 -120 4 -88 0 -122 -3 -125 -12z m145
-108 c0 -16 59 -530 66 -572 l6 -38 -91 0 c-69 0 -91 3 -91 13 0 19 59 535 65
575 4 23 11 32 25 32 11 0 20 -5 20 -10z"/>
</g>
</svg>
