<?xml version="1.0" encoding="UTF-8"?>
<!DOCTYPE svg PUBLIC "-//W3C//DTD SVG 1.1//EN" "http://www.w3.org/Graphics/SVG/1.1/DTD/svg11.dtd">
<svg xmlns="http://www.w3.org/2000/svg" version="1.1" width="712px" height="705px" style="shape-rendering:geometricPrecision; text-rendering:geometricPrecision; image-rendering:optimizeQuality; fill-rule:evenodd; clip-rule:evenodd" xmlns:xlink="http://www.w3.org/1999/xlink">
<g><path style="opacity:1" fill="#fefefe" d="M -0.5,-0.5 C 236.833,-0.5 474.167,-0.5 711.5,-0.5C 711.5,234.5 711.5,469.5 711.5,704.5C 474.167,704.5 236.833,704.5 -0.5,704.5C -0.5,469.5 -0.5,234.5 -0.5,-0.5 Z"/></g>
<g><path style="opacity:1" fill="#837c6c" d="M 334.5,5.5 C 457.79,2.0734 556.957,48.7401 632,145.5C 703.58,249.836 716.58,361.169 671,479.5C 634.344,564.489 573.844,625.989 489.5,664C 418.708,693.019 346.042,698.685 271.5,681C 178.944,655.745 108.444,601.912 60,519.5C 12.6606,433.041 2.32728,342.374 29,247.5C 67.3033,132.53 144.137,56.3636 259.5,19C 284.209,12.0626 309.209,7.56261 334.5,5.5 Z"/></g>
<g><path style="opacity:1" fill="#fefefe" d="M 339.5,23.5 C 457.924,21.2994 552.424,67.2994 623,161.5C 682.635,248.98 698.302,343.98 670,446.5C 640.126,537.03 582.959,604.197 498.5,648C 426.694,680.043 352.361,687.71 275.5,671C 201.147,650.589 140.314,610.089 93,549.5C 38.648,474.87 17.9813,391.537 31,299.5C 43.9556,224.075 78.4556,160.575 134.5,109C 192.564,56.3133 260.897,27.8133 339.5,23.5 Z"/></g>
<g><path style="opacity:1" fill="#847c6c" d="M 329.5,41.5 C 428.372,35.6117 512.205,67.945 581,138.5C 617.405,178.295 642.071,224.628 655,277.5C 655.743,279.441 655.576,281.274 654.5,283C 651.24,283.784 648.073,283.617 645,282.5C 613.054,164.887 538.221,90.3874 420.5,59C 312.572,38.3448 219.739,66.5115 142,143.5C 105.215,183.562 80.0479,230.062 66.5,283C 63.5184,283.498 60.5184,283.665 57.5,283.5C 65.166,241.84 81.3327,203.84 106,169.5C 161.821,94.6599 236.321,51.9932 329.5,41.5 Z"/></g>
<g><path style="opacity:1" fill="#837b6b" d="M 401.5,218.5 C 401.5,217.167 401.5,215.833 401.5,214.5C 408.833,214.5 416.167,214.5 423.5,214.5C 424.128,229.308 431.461,234.474 445.5,230C 448.231,227.374 450.064,224.207 451,220.5C 451.667,213.833 451.667,207.167 451,200.5C 450.13,194.296 446.63,190.796 440.5,190C 435.845,189.501 431.179,189.334 426.5,189.5C 426.5,183.167 426.5,176.833 426.5,170.5C 431.511,170.666 436.511,170.499 441.5,170C 443.519,169.55 445.352,168.717 447,167.5C 452.452,156.638 452.785,145.638 448,134.5C 439.859,127.285 432.526,127.952 426,136.5C 424.846,140.104 424.013,143.771 423.5,147.5C 416.167,147.5 408.833,147.5 401.5,147.5C 401.5,146.167 401.5,144.833 401.5,143.5C 402.274,126.76 410.608,115.926 426.5,111C 441.212,108.247 454.378,111.414 466,120.5C 475.224,134.921 476.89,150.254 471,166.5C 468.038,171.627 464.205,175.96 459.5,179.5C 467.226,184.41 472.06,191.41 474,200.5C 478.245,241.261 460.412,257.428 420.5,249C 407.859,242.842 401.526,232.675 401.5,218.5 Z"/></g>
<g><path style="opacity:1" fill="#837b6b" d="M 270.5,131.5 C 269.505,142.988 269.172,154.655 269.5,166.5C 275.167,166.5 280.833,166.5 286.5,166.5C 304.632,166.139 315.466,174.806 319,192.5C 322.437,208.59 320.437,223.923 313,238.5C 308.873,244.148 303.373,247.648 296.5,249C 280.215,250.423 263.882,250.923 247.5,250.5C 247.5,204.167 247.5,157.833 247.5,111.5C 269.5,111.5 291.5,111.5 313.5,111.5C 313.5,118.167 313.5,124.833 313.5,131.5C 299.167,131.5 284.833,131.5 270.5,131.5 Z"/></g>
<g><path style="opacity:1" fill="#827a6a" d="M 333.5,111.5 C 353.5,111.5 373.5,111.5 393.5,111.5C 393.5,118.167 393.5,124.833 393.5,131.5C 381.167,131.5 368.833,131.5 356.5,131.5C 356.5,144.5 356.5,157.5 356.5,170.5C 366.833,170.5 377.167,170.5 387.5,170.5C 387.5,176.833 387.5,183.167 387.5,189.5C 376.986,189.172 366.653,189.506 356.5,190.5C 355.504,203.656 355.171,216.99 355.5,230.5C 368.167,230.5 380.833,230.5 393.5,230.5C 393.5,236.833 393.5,243.167 393.5,249.5C 373.5,249.5 353.5,249.5 333.5,249.5C 333.5,203.5 333.5,157.5 333.5,111.5 Z"/></g>
<g><path style="opacity:1" fill="#bfbbb4" d="M 270.5,131.5 C 270.5,142.833 270.5,154.167 270.5,165.5C 276.026,165.179 281.36,165.512 286.5,166.5C 280.833,166.5 275.167,166.5 269.5,166.5C 269.172,154.655 269.505,142.988 270.5,131.5 Z"/></g>
<g><path style="opacity:1" fill="#aaa499" d="M 401.5,143.5 C 401.5,144.833 401.5,146.167 401.5,147.5C 408.833,147.5 416.167,147.5 423.5,147.5C 416.018,148.492 408.352,148.825 400.5,148.5C 400.216,146.585 400.549,144.919 401.5,143.5 Z"/></g>
<g><path style="opacity:1" fill="#c1bdb5" d="M 285.5,186.5 C 280.5,186.5 275.5,186.5 270.5,186.5C 270.5,200.833 270.5,215.167 270.5,229.5C 275.833,229.5 281.167,229.5 286.5,229.5C 281.025,230.489 275.358,230.822 269.5,230.5C 269.5,215.5 269.5,200.5 269.5,185.5C 275.026,185.179 280.36,185.512 285.5,186.5 Z"/></g>
<g><path style="opacity:1" fill="#fefefe" d="M 285.5,186.5 C 292.48,187.316 296.313,191.316 297,198.5C 297.881,206.956 297.214,215.29 295,223.5C 293.395,227.276 290.562,229.276 286.5,229.5C 281.167,229.5 275.833,229.5 270.5,229.5C 270.5,215.167 270.5,200.833 270.5,186.5C 275.5,186.5 280.5,186.5 285.5,186.5 Z"/></g>
<g><path style="opacity:1" fill="#9b9588" d="M 387.5,170.5 C 388.491,176.979 388.824,183.646 388.5,190.5C 377.833,190.5 367.167,190.5 356.5,190.5C 366.653,189.506 376.986,189.172 387.5,189.5C 387.5,183.167 387.5,176.833 387.5,170.5 Z"/></g>
<g><path style="opacity:1" fill="#a6a195" d="M 423.5,214.5 C 416.167,214.5 408.833,214.5 401.5,214.5C 401.5,215.833 401.5,217.167 401.5,218.5C 400.549,217.081 400.216,215.415 400.5,213.5C 408.352,213.175 416.018,213.508 423.5,214.5 Z"/></g>
<g><path style="opacity:1" fill="#d7d4cf" d="M 356.5,190.5 C 356.5,203.5 356.5,216.5 356.5,229.5C 369.011,229.171 381.345,229.505 393.5,230.5C 380.833,230.5 368.167,230.5 355.5,230.5C 355.171,216.99 355.504,203.656 356.5,190.5 Z"/></g>
<g><path style="opacity:1" fill="#c6c2bb" d="M 333.5,111.5 C 333.5,157.5 333.5,203.5 333.5,249.5C 353.5,249.5 373.5,249.5 393.5,249.5C 373.34,250.497 353.007,250.83 332.5,250.5C 332.168,203.997 332.501,157.664 333.5,111.5 Z"/></g>
<g><path style="opacity:1" fill="#827a6a" d="M 53.5,295.5 C 254.5,295.333 455.5,295.5 656.5,296C 669.804,377.977 653.637,453.811 608,523.5C 546.322,612.352 460.989,658.019 352,660.5C 237.819,654.867 151.152,603.534 92,506.5C 55.2117,440.427 42.3783,370.094 53.5,295.5 Z"/></g>
<g><path style="opacity:1" fill="#fdfdfd" d="M 178.5,330.5 C 201.707,328.05 213.707,338.383 214.5,361.5C 207.5,361.5 200.5,361.5 193.5,361.5C 193.543,358.09 193.043,354.757 192,351.5C 185.011,347.447 181.011,349.447 180,357.5C 179.333,372.833 179.333,388.167 180,403.5C 180.488,410.33 183.988,412.83 190.5,411C 192.204,407.518 193.537,403.852 194.5,400C 201.158,399.5 207.825,399.334 214.5,399.5C 214.017,423.768 201.684,433.935 177.5,430C 166.104,425.403 159.938,416.903 159,404.5C 158.114,386.135 158.448,367.802 160,349.5C 163.378,340.29 169.545,333.957 178.5,330.5 Z"/></g>
<g><path style="opacity:1" fill="#fdfdfd" d="M 243.5,331.5 C 250.09,331.189 256.59,331.522 263,332.5C 271.49,365.128 279.657,397.795 287.5,430.5C 280.492,430.666 273.492,430.5 266.5,430C 264.625,424.3 263.125,418.466 262,412.5C 256,411.167 250,411.167 244,412.5C 242.384,418.081 241.217,423.748 240.5,429.5C 233.167,429.5 225.833,429.5 218.5,429.5C 226.21,396.659 234.544,363.992 243.5,331.5 Z"/></g>
<g><path style="opacity:1" fill="#fdfdfd" d="M 351.5,427.5 C 344.913,429.461 337.913,430.128 330.5,429.5C 329.883,429.389 329.383,429.056 329,428.5C 326.468,420.362 323.635,412.362 320.5,404.5C 317.399,412.635 314.399,420.802 311.5,429C 303.833,429.667 296.167,429.667 288.5,429C 295.46,412.419 302.127,395.752 308.5,379C 302.798,363.396 296.798,347.896 290.5,332.5C 297.811,331.335 305.144,331.169 312.5,332C 315.458,339.04 318.125,346.206 320.5,353.5C 322.888,346.162 325.555,338.995 328.5,332C 335.856,331.169 343.189,331.335 350.5,332.5C 344.298,347.777 338.298,363.111 332.5,378.5C 338.556,394.945 344.89,411.279 351.5,427.5 Z"/></g>
<g><path style="opacity:1" fill="#fdfdfd" d="M 379.5,331.5 C 385.509,331.334 391.509,331.501 397.5,332C 406.372,363.988 414.706,396.154 422.5,428.5C 415.197,429.497 407.863,429.831 400.5,429.5C 399.783,423.748 398.616,418.081 397,412.5C 391,411.167 385,411.167 379,412.5C 377.939,417.867 376.773,423.2 375.5,428.5C 368.197,429.497 360.863,429.831 353.5,429.5C 361.246,396.511 369.913,363.844 379.5,331.5 Z"/></g>
<g><path style="opacity:1" fill="#fdfdfc" d="M 462.5,393.5 C 459.167,393.5 455.833,393.5 452.5,393.5C 452.5,405.5 452.5,417.5 452.5,429.5C 445.5,429.5 438.5,429.5 431.5,429.5C 431.5,396.833 431.5,364.167 431.5,331.5C 443.505,331.333 455.505,331.5 467.5,332C 481.143,336.415 487.477,345.915 486.5,360.5C 486.495,367.706 485.328,374.706 483,381.5C 478.568,389.47 471.735,393.47 462.5,393.5 Z"/></g>
<g><path style="opacity:1" fill="#fdfdfd" d="M 510.5,331.5 C 517.09,331.189 523.59,331.522 530,332.5C 538.636,364.709 546.802,397.042 554.5,429.5C 547.137,429.831 539.803,429.497 532.5,428.5C 531.4,423.166 530.233,417.832 529,412.5C 523,411.167 517,411.167 511,412.5C 509.786,418.169 508.619,423.836 507.5,429.5C 500.137,429.831 492.803,429.497 485.5,428.5C 493.688,396.079 502.022,363.746 510.5,331.5 Z"/></g>
<g><path style="opacity:1" fill="#867e6e" d="M 452.5,350.5 C 461.302,348.375 465.635,351.708 465.5,360.5C 465.476,364.618 464.809,368.618 463.5,372.5C 462.975,373.192 462.308,373.692 461.5,374C 458.518,374.498 455.518,374.665 452.5,374.5C 452.5,366.5 452.5,358.5 452.5,350.5 Z"/></g>
<g><path style="opacity:1" fill="#898273" d="M 252.5,372.5 C 254.656,378.914 256.322,385.58 257.5,392.5C 254.5,392.5 251.5,392.5 248.5,392.5C 249.45,385.748 250.784,379.082 252.5,372.5 Z"/></g>
<g><path style="opacity:1" fill="#888071" d="M 387.5,372.5 C 390.166,378.802 391.833,385.469 392.5,392.5C 389.428,392.817 386.428,392.484 383.5,391.5C 384.942,385.18 386.275,378.847 387.5,372.5 Z"/></g>
<g><path style="opacity:1" fill="#898273" d="M 519.5,372.5 C 521.937,378.841 523.603,385.507 524.5,392.5C 521.5,392.5 518.5,392.5 515.5,392.5C 516.961,385.86 518.295,379.193 519.5,372.5 Z"/></g>
<g><path style="opacity:1" fill="#9d978a" d="M 462.5,393.5 C 459.713,394.477 456.713,394.81 453.5,394.5C 453.828,406.345 453.495,418.012 452.5,429.5C 452.5,417.5 452.5,405.5 452.5,393.5C 455.833,393.5 459.167,393.5 462.5,393.5 Z"/></g>
<g><path style="opacity:1" fill="#c2bfb7" d="M 351.5,427.5 C 352.404,428.209 352.737,429.209 352.5,430.5C 344.981,430.825 337.648,430.492 330.5,429.5C 337.913,430.128 344.913,429.461 351.5,427.5 Z"/></g>
<g><path style="opacity:1" fill="#fdfdfd" d="M 386.5,466.5 C 391.765,465.571 396.265,466.904 400,470.5C 405.394,484.013 410.394,497.68 415,511.5C 417.868,518.592 416.034,524.092 409.5,528C 393.717,534.041 377.717,539.041 361.5,543C 357.333,541.5 354.5,538.667 353,534.5C 348.674,521.522 344.341,508.522 340,495.5C 338.058,489.11 339.891,484.277 345.5,481C 359.303,476.235 372.969,471.401 386.5,466.5 Z"/></g>
<g><path style="opacity:1" fill="#fefefe" d="M 267.5,514.5 C 269.527,514.338 271.527,514.505 273.5,515C 293.516,521.006 313.516,527.006 333.5,533C 338.816,536.472 340.649,541.305 339,547.5C 333.333,566.5 327.667,585.5 322,604.5C 318.425,612.248 312.591,614.748 304.5,612C 286.182,606.339 267.849,600.672 249.5,595C 242.567,591.628 240.067,586.128 242,578.5C 248.002,559.155 254.002,539.822 260,520.5C 262.134,517.847 264.634,515.847 267.5,514.5 Z"/></g>
<g><path style="opacity:1" fill="#fefefe" d="M 355.5,563.5 C 373.503,563.333 391.503,563.5 409.5,564C 410.931,564.465 412.097,565.299 413,566.5C 414.641,585.41 414.974,604.41 414,623.5C 413.535,624.931 412.701,626.097 411.5,627C 392.924,628.64 374.257,628.974 355.5,628C 354.069,627.535 352.903,626.701 352,625.5C 350.359,606.257 350.025,586.923 351,567.5C 352.397,565.93 353.897,564.596 355.5,563.5 Z"/></g>
</svg>
