<?xml version="1.0" encoding="UTF-8"?>
<!DOCTYPE svg PUBLIC "-//W3C//DTD SVG 1.1//EN" "http://www.w3.org/Graphics/SVG/1.1/DTD/svg11.dtd">
<svg xmlns="http://www.w3.org/2000/svg" version="1.1" width="713px" height="711px" style="shape-rendering:geometricPrecision; text-rendering:geometricPrecision; image-rendering:optimizeQuality; fill-rule:evenodd; clip-rule:evenodd" xmlns:xlink="http://www.w3.org/1999/xlink">
<g><path style="opacity:1" fill="#fefefe" d="M -0.5,-0.5 C 237.167,-0.5 474.833,-0.5 712.5,-0.5C 712.5,236.5 712.5,473.5 712.5,710.5C 474.833,710.5 237.167,710.5 -0.5,710.5C -0.5,473.5 -0.5,236.5 -0.5,-0.5 Z"/></g>
<g><path style="opacity:1" fill="#837c6c" d="M 323.5,11.5 C 432.74,5.61741 525.573,41.2841 602,118.5C 683.562,210.245 710.895,316.245 684,436.5C 655.477,540.677 592.977,616.843 496.5,665C 417.294,700.734 335.961,706.4 252.5,682C 168.621,655.011 104.121,603.844 59,528.5C 9.37549,439.978 -1.29118,346.978 27,249.5C 65.5669,138.6 140.4,64.0999 251.5,26C 275.265,19.3214 299.265,14.4881 323.5,11.5 Z"/></g>
<g><path style="opacity:1" fill="#fefdfd" d="M 336.5,29.5 C 452.181,26.598 545.348,70.598 616,161.5C 682.092,255.245 697.425,356.912 662,466.5C 634.6,540.474 587.433,598.308 520.5,640C 451.744,679.016 378.077,693.016 299.5,682C 235.17,671.166 179.17,643.833 131.5,600C 55.8606,529.508 20.3606,442.341 25,338.5C 29.1417,262.361 56.475,196.027 107,139.5C 168.27,71.1284 244.77,34.4618 336.5,29.5 Z"/></g>
<g><path style="opacity:1" fill="#827a6a" d="M 341.5,65.5 C 447.183,64.7595 531.349,106.426 594,190.5C 643.276,262.317 658.61,340.984 640,426.5C 618.708,509.108 571.541,572.274 498.5,616C 420.708,656.847 340.041,663.847 256.5,637C 156.223,598.277 93.0567,526.777 67,422.5C 45.1681,294.743 86.0014,192.576 189.5,116C 235.644,85.4521 286.31,68.6187 341.5,65.5 Z"/></g>
<g><path style="opacity:1" fill="#fefefe" d="M 396.5,129.5 C 426.286,127.681 455.286,131.515 483.5,141C 496.76,145.875 508.26,153.375 518,163.5C 530.528,180.928 529.028,197.094 513.5,212C 502.508,220.999 490.175,227.665 476.5,232C 436.6,244.197 396.6,244.53 356.5,233C 338.554,228.284 323.388,219.117 311,205.5C 301.671,192.612 301.337,179.612 310,166.5C 318.047,156.719 327.881,149.219 339.5,144C 357.866,136.159 376.866,131.326 396.5,129.5 Z"/></g>
<g><path style="opacity:1" fill="#fdfdfd" d="M 304.5,217.5 C 305.552,217.351 306.552,217.517 307.5,218C 320.532,229.687 335.532,238.02 352.5,243C 391.658,253.627 430.991,254.294 470.5,245C 489.089,239.705 506.089,231.372 521.5,220C 523.025,218.991 524.692,218.491 526.5,218.5C 527.981,233.367 522.981,245.533 511.5,255C 488.454,271.128 462.787,280.128 434.5,282C 399.15,285.861 365.483,280.194 333.5,265C 323.414,259.244 314.914,251.744 308,242.5C 303.81,234.563 302.643,226.229 304.5,217.5 Z"/></g>
<g><path style="opacity:1" fill="#fdfdfd" d="M 304.5,259.5 C 305.552,259.351 306.552,259.517 307.5,260C 329.779,277.656 355.112,288.323 383.5,292C 409.604,293.332 435.604,292.332 461.5,289C 484.629,284.933 504.962,275.266 522.5,260C 523.784,259.316 524.951,259.483 526,260.5C 527.788,277.423 521.621,290.59 507.5,300C 484.544,314.095 459.544,321.762 432.5,323C 393.957,327.688 357.957,320.355 324.5,301C 312.098,292.946 305.098,281.612 303.5,267C 303.625,264.449 303.958,261.949 304.5,259.5 Z"/></g>
<g><path style="opacity:1" fill="#fdfdfd" d="M 304.5,300.5 C 341.576,327.692 383.243,339.192 429.5,335C 457.147,333.257 483.147,325.924 507.5,313C 512.755,308.791 518.255,304.958 524,301.5C 524.772,301.645 525.439,301.978 526,302.5C 527.407,319.52 520.907,332.686 506.5,342C 486.853,354.105 465.519,361.438 442.5,364C 408.512,368.626 375.512,364.959 343.5,353C 331.013,347.84 320.18,340.34 311,330.5C 304.092,321.535 301.926,311.535 304.5,300.5 Z"/></g>
<g><path style="opacity:1" fill="#fefefe" d="M 151.5,355.5 C 164.504,355.333 177.504,355.5 190.5,356C 192.333,356.5 193.5,357.667 194,359.5C 194.667,403.167 194.667,446.833 194,490.5C 193.5,492.333 192.333,493.5 190.5,494C 177.833,494.667 165.167,494.667 152.5,494C 150.714,493.215 149.214,492.049 148,490.5C 147.333,447.167 147.333,403.833 148,360.5C 148.997,358.677 150.164,357.01 151.5,355.5 Z"/></g>
<g><path style="opacity:1" fill="#fefefe" d="M 269.5,362.5 C 297.819,360.474 325.152,364.64 351.5,375C 361.715,379.941 372.048,384.608 382.5,389C 405.562,391.425 428.562,394.425 451.5,398C 461.801,400.099 471.468,403.766 480.5,409C 483.361,411.894 485.861,415.061 488,418.5C 489.015,429.642 485.182,438.809 476.5,446C 470.034,448.987 463.2,450.154 456,449.5C 427.53,447.385 399.03,446.218 370.5,446C 368.699,446.317 368.366,446.984 369.5,448C 380.64,453.736 392.307,458.07 404.5,461C 428.369,463.544 452.036,462.211 475.5,457C 481.489,455.448 487.156,453.115 492.5,450C 501.277,442.557 510.61,435.891 520.5,430C 532.22,424.082 543.887,424.082 555.5,430C 559.966,433.099 561.466,437.265 560,442.5C 558.802,446.194 556.968,449.528 554.5,452.5C 560.684,455.469 562.184,460.135 559,466.5C 556.985,471.519 553.818,475.685 549.5,479C 530.188,493.326 510.188,506.659 489.5,519C 483.379,521.425 477.046,523.092 470.5,524C 448.077,526.761 425.743,530.094 403.5,534C 387.861,535.486 372.194,535.819 356.5,535C 315.857,515.511 274.857,496.845 233.5,479C 226.484,477.76 219.484,476.426 212.5,475C 210.448,474.07 208.948,472.57 208,470.5C 206.881,454.537 206.381,438.537 206.5,422.5C 206.349,407.744 206.849,393.077 208,378.5C 211.636,376.266 215.469,374.432 219.5,373C 236.15,368.731 252.817,365.231 269.5,362.5 Z"/></g>
</svg>
