<?xml version="1.0" encoding="UTF-8"?>
<!DOCTYPE svg PUBLIC "-//W3C//DTD SVG 1.1//EN" "http://www.w3.org/Graphics/SVG/1.1/DTD/svg11.dtd">
<svg xmlns="http://www.w3.org/2000/svg" version="1.1" width="586px" height="634px" style="shape-rendering:geometricPrecision; text-rendering:geometricPrecision; image-rendering:optimizeQuality; fill-rule:evenodd; clip-rule:evenodd" xmlns:xlink="http://www.w3.org/1999/xlink">
<g><path style="opacity:1" fill="#fefefe" d="M -0.5,-0.5 C 194.833,-0.5 390.167,-0.5 585.5,-0.5C 585.5,210.833 585.5,422.167 585.5,633.5C 390.167,633.5 194.833,633.5 -0.5,633.5C -0.5,422.167 -0.5,210.833 -0.5,-0.5 Z"/></g>
<g><path style="opacity:1" fill="#827a6a" d="M 285.5,8.5 C 375.599,7.11766 444.099,44.451 491,120.5C 523.928,183.62 527.261,248.287 501,314.5C 492.167,334.187 480.834,352.187 467,368.5C 466.833,369.333 466.667,370.167 466.5,371C 499.646,422.945 533.312,474.611 567.5,526C 531.448,522.545 495.448,518.878 459.5,515C 448.935,550.195 438.268,585.362 427.5,620.5C 393.735,562.226 359.735,504.059 325.5,446C 307.839,446.764 290.172,446.598 272.5,445.5C 269.989,445.288 267.822,445.955 266,447.5C 231.25,502.669 196.25,557.669 161,612.5C 149.749,578.914 138.583,545.247 127.5,511.5C 126.5,511.167 125.5,510.833 124.5,510.5C 88.4828,515.674 52.4828,520.508 16.5,525C 54.1667,472.667 91.8333,420.333 129.5,368C 85.3954,312.743 70.2287,250.243 84,180.5C 104.589,100.577 153.756,46.7438 231.5,19C 249.236,13.4853 267.236,9.98534 285.5,8.5 Z"/></g>
<g><path style="opacity:1" fill="#fdfdfd" d="M 283.5,46.5 C 358.928,44.1229 416.761,74.4563 457,137.5C 480.666,181.15 486.666,227.15 475,275.5C 458.03,329.808 423.863,369.308 372.5,394C 304.112,421.182 240.779,412.515 182.5,368C 133.992,325.124 112.492,271.291 118,206.5C 127.107,145.78 157.941,99.9472 210.5,69C 233.497,56.7203 257.83,49.2203 283.5,46.5 Z"/></g>
<g><path style="opacity:1" fill="#827a6a" d="M 286.5,73.5 C 351.96,71.9679 401.46,98.9679 435,154.5C 464.182,215.349 458.515,272.682 418,326.5C 372.449,376.009 316.949,392.176 251.5,375C 189.739,351.996 154.239,307.829 145,242.5C 141.83,175.993 168.663,125.827 225.5,92C 244.777,81.9367 265.11,75.7701 286.5,73.5 Z"/></g>
<g><path style="opacity:1" fill="#fefefd" d="M 197.5,203.5 C 215.326,202.503 233.326,202.17 251.5,202.5C 260.085,202.817 268.585,202.483 277,201.5C 284.946,176.995 293.279,152.662 302,128.5C 310.308,153.092 318.808,177.592 327.5,202C 353.833,202.333 380.167,202.667 406.5,203C 385.167,218.333 363.833,233.667 342.5,249C 351.299,273.729 359.466,298.562 367,323.5C 345.6,307.763 323.934,292.43 302,277.5C 280.066,292.43 258.4,307.763 237,323.5C 244.229,299.809 251.896,276.142 260,252.5C 260.667,250.833 260.667,249.167 260,247.5C 239.05,232.947 218.217,218.28 197.5,203.5 Z"/></g>
<g><path style="opacity:1" fill="#a19b8f" d="M 251.5,202.5 C 233.326,202.17 215.326,202.503 197.5,203.5C 196.957,203.44 196.624,203.107 196.5,202.5C 214.996,201.173 233.329,201.173 251.5,202.5 Z"/></g>
<g><path style="opacity:1" fill="#fefefe" d="M 151.5,391.5 C 170.833,407.617 192.166,420.784 215.5,431C 223.215,433.738 230.881,436.571 238.5,439.5C 217.07,475.369 195.403,511.036 173.5,546.5C 164.4,523.699 155.4,500.866 146.5,478C 126.377,480.29 106.377,483.623 86.5,488C 84.1667,488.667 81.8333,488.667 79.5,488C 103.717,455.956 127.717,423.789 151.5,391.5 Z"/></g>
<g><path style="opacity:1" fill="#fefefe" d="M 444.5,391.5 C 445.496,391.414 446.329,391.748 447,392.5C 468.443,424.276 490.277,455.776 512.5,487C 487.16,486.342 461.827,485.175 436.5,483.5C 431.317,505.565 425.817,527.565 420,549.5C 400.034,512.706 379.867,476.04 359.5,439.5C 383.691,431.279 406.358,420.112 427.5,406C 433.61,401.623 439.277,396.789 444.5,391.5 Z"/></g>
</svg>
