<?xml version="1.0" encoding="UTF-8"?>
<!DOCTYPE svg PUBLIC "-//W3C//DTD SVG 1.1//EN" "http://www.w3.org/Graphics/SVG/1.1/DTD/svg11.dtd">
<svg xmlns="http://www.w3.org/2000/svg" version="1.1" width="660px" height="750px" style="shape-rendering:geometricPrecision; text-rendering:geometricPrecision; image-rendering:optimizeQuality; fill-rule:evenodd; clip-rule:evenodd" xmlns:xlink="http://www.w3.org/1999/xlink">
<g><path style="opacity:1" fill="#fefefe" d="M -0.5,-0.5 C 219.5,-0.5 439.5,-0.5 659.5,-0.5C 659.5,249.5 659.5,499.5 659.5,749.5C 439.5,749.5 219.5,749.5 -0.5,749.5C -0.5,499.5 -0.5,249.5 -0.5,-0.5 Z"/></g>
<g><path style="opacity:1" fill="#827a6a" d="M 370.5,26.5 C 393.983,24.9345 416.65,28.4345 438.5,37C 484.334,58.3498 522.168,89.5165 552,130.5C 569.845,155.506 585.679,181.84 599.5,209.5C 563.487,220.503 526.82,228.669 489.5,234C 424.45,240.197 368.95,220.364 323,174.5C 304.475,152.926 290.475,128.593 281,101.5C 280.503,99.1902 280.337,96.8568 280.5,94.5C 336.336,90.6906 390.336,98.8573 442.5,119C 463.627,126.563 484.293,135.23 504.5,145C 506.403,145.774 508.07,145.44 509.5,144C 464.935,108.892 414.602,85.8923 358.5,75C 332.93,70.9429 307.263,67.6096 281.5,65C 307.353,43.3275 337.02,30.4942 370.5,26.5 Z"/></g>
<g><path style="opacity:1" fill="#827a6b" d="M 633.5,392.5 C 634.167,390.5 634.833,388.5 635.5,386.5C 639.937,498.114 599.604,589.614 514.5,661C 457.761,705.414 393.095,727.247 320.5,726.5C 261.293,725.818 206.96,709.318 157.5,677C 66.6368,615.649 18.4701,529.815 13,419.5C 9.66702,346.103 29.0004,279.437 71,219.5C 107.723,167.112 155.889,129.279 215.5,106C 217.754,104.85 220.087,104.516 222.5,105C 119.672,156.567 61.172,239.734 47,354.5C 42.6152,443.361 69.9485,520.695 129,586.5C 214.094,670.15 314.261,695.65 429.5,663C 532.139,626.027 597.639,554.86 626,449.5C 630.548,430.781 633.048,411.781 633.5,392.5 Z"/></g>
<g><path style="opacity:1" fill="#837b6b" d="M 400.5,301.5 C 391.167,301.5 381.833,301.5 372.5,301.5C 372.5,298.833 372.5,296.167 372.5,293.5C 374.586,278.496 382.586,267.996 396.5,262C 412.813,257.891 427.813,260.558 441.5,270C 451.055,281.854 454.222,295.354 451,310.5C 449.253,319.488 444.419,326.321 436.5,331C 448.465,338.013 453.465,348.513 451.5,362.5C 452.923,390.91 439.423,405.243 411,405.5C 390.518,406.013 377.851,396.346 373,376.5C 372.077,372.21 371.577,367.877 371.5,363.5C 381.167,363.5 390.833,363.5 400.5,363.5C 399.558,375.394 404.891,380.56 416.5,379C 418.286,378.215 419.786,377.049 421,375.5C 423.421,368.026 424.088,360.36 423,352.5C 421.998,348.32 419.498,345.486 415.5,344C 410.511,343.501 405.511,343.334 400.5,343.5C 400.5,335.5 400.5,327.5 400.5,319.5C 415.822,323.21 423.488,317.376 423.5,302C 423.977,289.802 418.31,284.802 406.5,287C 402.066,290.798 400.066,295.631 400.5,301.5 Z"/></g>
<g><path style="opacity:1" fill="#837b6b" d="M 196.5,261.5 C 220.833,261.5 245.167,261.5 269.5,261.5C 269.5,270.167 269.5,278.833 269.5,287.5C 254.833,287.5 240.167,287.5 225.5,287.5C 225.5,296.167 225.5,304.833 225.5,313.5C 234.559,313.154 243.559,313.654 252.5,315C 266.376,319.874 274.209,329.707 276,344.5C 276.776,355.202 276.443,365.869 275,376.5C 272.789,388.774 265.956,397.274 254.5,402C 235.207,403.422 215.874,403.922 196.5,403.5C 196.5,356.167 196.5,308.833 196.5,261.5 Z"/></g>
<g><path style="opacity:1" fill="#a19b8f" d="M 323.5,287.5 C 323.167,287.5 322.833,287.5 322.5,287.5C 334.322,286.505 346.322,286.172 358.5,286.5C 358.5,278.5 358.5,270.5 358.5,262.5C 337.167,262.5 315.833,262.5 294.5,262.5C 294.5,309.5 294.5,356.5 294.5,403.5C 293.501,356.336 293.168,309.003 293.5,261.5C 315.5,261.5 337.5,261.5 359.5,261.5C 359.5,270.167 359.5,278.833 359.5,287.5C 347.5,287.5 335.5,287.5 323.5,287.5 Z"/></g>
<g><path style="opacity:1" fill="#827a6a" d="M 322.5,287.5 C 322.5,298.167 322.5,308.833 322.5,319.5C 332.833,319.5 343.167,319.5 353.5,319.5C 353.5,327.833 353.5,336.167 353.5,344.5C 343.167,344.5 332.833,344.5 322.5,344.5C 322.5,355.833 322.5,367.167 322.5,378.5C 334.833,378.5 347.167,378.5 359.5,378.5C 359.5,386.833 359.5,395.167 359.5,403.5C 337.833,403.5 316.167,403.5 294.5,403.5C 294.5,356.5 294.5,309.5 294.5,262.5C 315.833,262.5 337.167,262.5 358.5,262.5C 358.5,270.5 358.5,278.5 358.5,286.5C 346.322,286.172 334.322,286.505 322.5,287.5 Z"/></g>
<g><path style="opacity:1" fill="#c4c1ba" d="M 372.5,293.5 C 372.5,296.167 372.5,298.833 372.5,301.5C 381.833,301.5 391.167,301.5 400.5,301.5C 391.014,302.494 381.348,302.827 371.5,302.5C 371.19,299.287 371.523,296.287 372.5,293.5 Z"/></g>
<g><path style="opacity:1" fill="#eceae8" d="M 322.5,287.5 C 322.833,287.5 323.167,287.5 323.5,287.5C 323.5,297.833 323.5,308.167 323.5,318.5C 333.681,318.173 343.681,318.506 353.5,319.5C 343.167,319.5 332.833,319.5 322.5,319.5C 322.5,308.833 322.5,298.167 322.5,287.5 Z"/></g>
<g><path style="opacity:1" fill="#fcfcfc" d="M 225.5,339.5 C 241.482,335.164 249.149,341.164 248.5,357.5C 248.378,361.878 247.878,366.211 247,370.5C 246.111,374.112 243.945,376.612 240.5,378C 235.511,378.499 230.511,378.666 225.5,378.5C 225.5,365.5 225.5,352.5 225.5,339.5 Z"/></g>
<g><path style="opacity:1" fill="#bcb7af" d="M 635.5,386.5 C 634.833,388.5 634.167,390.5 633.5,392.5C 633.334,386.491 633.501,380.491 634,374.5C 635.015,378.44 635.515,382.44 635.5,386.5 Z"/></g>
<g><path style="opacity:1" fill="#827b6b" d="M 415.5,438.5 C 445.922,436.437 462.755,450.437 466,480.5C 466.667,500.5 466.667,520.5 466,540.5C 463.447,573.048 445.947,587.215 413.5,583C 399.497,577.664 390.331,567.831 386,553.5C 381.073,524.422 381.406,495.422 387,466.5C 391.752,452.248 401.252,442.914 415.5,438.5 Z"/></g>
<g><path style="opacity:1" fill="#827a6a" d="M 248.5,465.5 C 236.5,465.5 224.5,465.5 212.5,465.5C 212.5,503.833 212.5,542.167 212.5,580.5C 212.389,581.117 212.056,581.617 211.5,582C 202.506,582.5 193.506,582.666 184.5,582.5C 184.5,535.167 184.5,487.833 184.5,440.5C 205.833,440.5 227.167,440.5 248.5,440.5C 248.5,448.833 248.5,457.167 248.5,465.5 Z"/></g>
<g><path style="opacity:1" fill="#a8a298" d="M 264.5,440.5 C 264.5,487.5 264.5,534.5 264.5,581.5C 273.5,581.5 282.5,581.5 291.5,581.5C 291.167,558.157 291.5,534.824 292.5,511.5C 293.107,511.624 293.44,511.957 293.5,512.5C 292.502,535.661 292.169,558.994 292.5,582.5C 282.833,582.5 273.167,582.5 263.5,582.5C 263.168,534.997 263.501,487.664 264.5,440.5 Z"/></g>
<g><path style="opacity:1" fill="#827a6a" d="M 264.5,440.5 C 272.833,440.5 281.167,440.5 289.5,440.5C 297.236,463.04 305.569,485.373 314.5,507.5C 323.089,485.573 331.589,463.573 340,441.5C 348.415,440.517 356.915,440.183 365.5,440.5C 365.5,487.5 365.5,534.5 365.5,581.5C 356.167,581.5 346.833,581.5 337.5,581.5C 337.667,557.831 337.5,534.164 337,510.5C 336.209,511.745 335.709,513.078 335.5,514.5C 330.852,528.084 326.352,541.75 322,555.5C 317,556.833 312,556.833 307,555.5C 302.393,541.179 297.893,526.846 293.5,512.5C 293.44,511.957 293.107,511.624 292.5,511.5C 291.5,534.824 291.167,558.157 291.5,581.5C 282.5,581.5 273.5,581.5 264.5,581.5C 264.5,534.5 264.5,487.5 264.5,440.5 Z"/></g>
<g><path style="opacity:1" fill="#fdfdfc" d="M 420.5,464.5 C 430.53,463.026 436.03,467.36 437,477.5C 439.098,500.867 438.765,524.2 436,547.5C 434.159,557.004 428.659,560.171 419.5,557C 418.333,555.833 417.167,554.667 416,553.5C 414.681,549.263 413.681,544.929 413,540.5C 412.722,528.821 412.222,517.155 411.5,505.5C 412.461,494.844 413.294,484.177 414,473.5C 415.211,469.721 417.377,466.721 420.5,464.5 Z"/></g>
<g><path style="opacity:1" fill="#e8e6e3" d="M 248.5,465.5 C 237.012,466.495 225.345,466.828 213.5,466.5C 213.832,504.67 213.499,542.67 212.5,580.5C 212.5,542.167 212.5,503.833 212.5,465.5C 224.5,465.5 236.5,465.5 248.5,465.5 Z"/></g>
<g><path style="opacity:1" fill="#d6d3cf" d="M 365.5,581.5 C 356.014,582.494 346.348,582.827 336.5,582.5C 336.831,559.661 336.497,536.994 335.5,514.5C 335.709,513.078 336.209,511.745 337,510.5C 337.5,534.164 337.667,557.831 337.5,581.5C 346.833,581.5 356.167,581.5 365.5,581.5 Z"/></g>
</svg>
